<svg width="45" height="53" viewBox="0 0 45 53" fill="none" xmlns="http://www.w3.org/2000/svg">
<g id="Icon">
<g id="Group 3">
<mask id="mask0_1_4451" style="mask-type:luminance" maskUnits="userSpaceOnUse" x="0" y="23" width="45" height="30">
<path id="Clip 2" fill-rule="evenodd" clip-rule="evenodd" d="M0.376862 23.1533H44.4713V52.2845H0.376862V23.1533Z" fill="white"/>
</mask>
<g mask="url(#mask0_1_4451)">
<path id="Fill 1" fill-rule="evenodd" clip-rule="evenodd" d="M35.1313 39.6444V32.9085C36.6423 33.4686 37.5133 34.7368 37.5002 36.3032C37.487 37.8424 36.6275 39.0863 35.1313 39.6444ZM41.9826 36.4866C41.8584 40.2711 39.165 43.5012 35.4792 44.2694C35.1325 44.3418 34.7714 44.3451 34.2561 44.3961C34.4239 43.8208 34.5847 43.3886 34.6694 42.9424C34.7414 42.5645 34.9194 42.4341 35.2908 42.3219C38.1586 41.4546 39.9764 39.1998 40.0472 36.4899C40.1204 33.6631 38.4856 31.3627 35.6079 30.3129C34.5867 29.9407 35.1086 29.1187 35.1411 28.5611C35.1761 27.9631 35.7646 28.3719 36.0673 28.4583C39.6486 29.4814 42.1023 32.8287 41.9826 36.4866ZM32.5348 28.0627C32.5657 28.983 32.5402 29.905 32.5398 30.8266C32.5394 31.7152 32.5398 32.6039 32.5398 33.4925C32.4238 36.1852 32.7853 38.8944 32.3555 41.5735C31.6498 45.9711 27.8747 49.4678 23.4297 49.6734C19.5527 49.8527 15.6604 49.872 11.7834 49.6569C7.10928 49.397 3.13847 45.2239 2.98959 40.3279C2.8477 35.6589 2.95216 30.9824 2.92378 26.3097C2.92049 25.7529 3.1508 25.6641 3.62747 25.6649C10.5064 25.6756 17.3853 25.6805 24.2642 25.6604C24.8975 25.6587 25.0662 25.8898 25.0152 26.4655C24.9773 26.8899 25.0032 27.3205 25.0111 27.7481C25.025 28.52 25.2229 29.3087 23.9056 29.2125C23.2751 29.1669 22.8749 29.8351 22.8753 30.5601C22.877 33.4888 22.865 36.418 22.8803 39.3467C22.8852 40.2572 23.3816 40.7523 24.2782 40.7671C25.5947 40.7885 26.9115 40.7885 28.2276 40.7671C29.1427 40.7523 29.6041 40.2859 29.6086 39.3504C29.623 36.4217 29.6148 33.4925 29.6132 30.5638C29.6132 29.6377 29.1217 29.1368 28.219 29.1512C27.6313 29.1611 27.4832 28.9423 27.5317 28.411C27.6123 27.5347 27.1768 26.4137 27.7061 25.8417C28.2005 25.3079 29.3228 25.7085 30.168 25.6805C30.921 25.6558 31.9311 25.4136 32.3654 25.7948C32.8807 26.2468 32.5085 27.2818 32.5348 28.0627ZM25.4265 34.8546C25.4261 34.0983 25.4541 33.3409 25.417 32.5867C25.3883 31.9949 25.4096 31.6396 26.2071 31.6491C26.9684 31.6581 27.1361 31.8839 27.1131 32.5982C27.0613 34.2402 27.0481 35.8872 27.1181 37.5275C27.153 38.3434 26.6953 38.2135 26.2005 38.2468C25.6391 38.2846 25.3619 38.1789 25.4109 37.5156C25.4767 36.6331 25.4273 35.742 25.4265 34.8546ZM35.7897 25.7897C35.1708 25.6778 35.0721 25.4459 35.0721 24.9043C35.0712 23.5213 34.6859 23.1562 33.3147 23.1554C28.1134 23.1521 22.9124 23.1541 17.7115 23.1541C15.1435 23.1541 12.576 23.1537 10.0088 23.1541C7.40795 23.1541 4.80749 23.1517 2.20703 23.1554C0.795956 23.157 0.415531 23.5436 0.411007 24.9783C0.404427 26.8543 0.383041 28.7307 0.408128 30.6067C0.455836 34.1272 0.248967 37.6527 0.518349 41.1678C0.968279 47.0388 6.23377 52.0821 12.103 52.2203C15.7218 52.3054 19.3451 52.3 22.9647 52.2388C26.771 52.1746 29.874 50.5593 32.2832 47.6355C32.6978 47.1326 33.091 46.9352 33.7576 46.9385C39.2345 46.9656 43.9362 42.7983 44.4202 37.5429C44.9508 31.7845 41.3049 26.7881 35.7897 25.7897Z" fill="#1D242D"/>
</g>
</g>
<path id="Fill 4" fill-rule="evenodd" clip-rule="evenodd" d="M11.0419 19.6425C11.0453 20.7317 11.7138 21.332 12.8506 21.3099C13.9164 21.2891 14.5866 20.6798 14.5877 19.6765C14.5929 13.6863 14.59 7.69606 14.5826 1.70584C14.5808 0.602602 13.9485 0.00145399 12.8254 -0.00959965C11.6817 -0.0210784 11.0459 0.563064 11.0425 1.67225C11.0339 4.66737 11.0396 7.66248 11.0396 10.6572C11.039 13.6523 11.0327 16.6474 11.0419 19.6425Z" fill="#1D242D"/>
<path id="Fill 6" fill-rule="evenodd" clip-rule="evenodd" d="M17.5759 21.3105C18.3453 21.3081 18.7424 20.7713 18.7448 19.6988C18.7502 17.1977 18.7405 14.697 18.7498 12.1958C18.7604 9.27745 20.8763 7.42908 23.6591 7.89449C24.4363 8.02408 25.1051 7.60762 25.2314 6.91514C25.3549 6.2379 24.8693 5.62966 24.0692 5.45955C20.3057 4.65874 16.7001 7.40341 16.4199 11.3493C16.3205 12.7519 16.4043 14.169 16.4043 15.5792C16.3926 15.5792 16.3813 15.5792 16.37 15.5792C16.37 16.9582 16.3618 18.3367 16.3727 19.7153C16.3809 20.7689 16.803 21.3129 17.5759 21.3105Z" fill="#1D242D"/>
<path id="Fill 8" fill-rule="evenodd" clip-rule="evenodd" d="M3.70356 11.7294C5.5845 11.259 7.00093 12.635 7.03708 14.9784C7.06177 16.5576 7.05067 18.1375 7.03958 19.7171C7.0335 20.6166 7.31442 21.2291 8.09027 21.3054C8.77344 21.373 9.22649 20.739 9.24868 19.7206C9.26729 18.8786 9.25262 18.0358 9.25154 17.1933C9.25083 16.386 9.27445 15.5774 9.24689 14.7713C9.11198 10.8238 6.22651 8.09816 3.22796 9.07178C2.41382 9.33592 1.99941 10.0033 2.20626 10.7988C2.44137 11.7017 2.98533 11.9088 3.70356 11.7294Z" fill="#1D242D"/>
</g>
</svg>
