<svg width="52" height="42" viewBox="0 0 52 42" fill="none" xmlns="http://www.w3.org/2000/svg">
<g id="Group 8 Copy">
<g id="Group 3">
<mask id="mask0_1_4555" style="mask-type:luminance" maskUnits="userSpaceOnUse" x="0" y="0" width="52" height="42">
<path id="Clip 2" fill-rule="evenodd" clip-rule="evenodd" d="M0.117188 0.40625H51.3807V41.1842H0.117188V0.40625Z" fill="white"/>
</mask>
<g mask="url(#mask0_1_4555)">
<path id="Fill 1" fill-rule="evenodd" clip-rule="evenodd" d="M48.7835 37.8278C48.799 38.109 48.7461 38.3155 48.6262 38.4416C48.5045 38.569 48.2958 38.6345 48.0057 38.6358C46.7558 38.6407 45.5081 38.6367 44.2609 38.6319L25.9557 38.5765L3.81371 38.5089H3.71554C3.63515 38.5093 3.55475 38.5097 3.47436 38.5067C2.89338 38.4847 2.71305 38.3603 2.71571 37.6226C2.71749 37.0562 2.91559 36.8651 3.50101 36.8633C4.63454 36.8602 5.76806 36.8646 6.90203 36.869L47.8423 36.9921C48.5862 36.9943 48.7444 37.1349 48.7835 37.8278ZM18.6259 10.7503C18.7107 10.6941 18.7969 10.6387 18.8826 10.5838C19.0056 10.5047 19.1287 10.4256 19.2491 10.3421C19.9064 9.88386 20.0779 9.16764 19.675 8.55952C19.2704 7.94832 18.5193 7.81079 17.8504 8.22734C15.7925 9.5073 14.0087 11.1427 12.5487 13.0888C12.4537 13.2158 12.3595 13.3445 12.2658 13.4728L12.0939 13.7005L10.705 12.8911C13.107 9.02792 17.2001 6.00268 21.9701 4.57332C27.2264 2.99809 32.7825 3.52492 37.6151 6.05672C42.7036 8.72254 46.392 13.0879 48.0008 18.3484C49.5731 23.4893 49.0454 29.0978 46.5568 33.7743L14.313 14.994C15.4829 13.2984 16.8963 11.9082 18.6259 10.7503ZM24.3607 24.4263C25.0167 24.3432 25.5595 24.4623 26.1755 24.8252C28.4435 26.1641 30.7194 27.4902 32.9958 28.8163C34.5055 29.6959 36.0153 30.5756 37.5224 31.4584C37.6685 31.544 37.8084 31.7 37.8706 31.8463C38.1526 32.5094 38.4165 33.1782 38.6959 33.886L38.8953 34.39L12.6612 34.3122C12.6718 34.2722 12.682 34.2323 12.6923 34.1932C12.7589 33.9361 12.8211 33.6931 12.9063 33.4633C14.8611 28.184 18.7152 25.1438 24.3607 24.4263ZM42.683 34.4561C42.3117 34.457 41.9417 34.4561 41.577 34.4407C41.5455 34.4337 41.4802 34.3836 41.4673 34.3616C41.3958 34.1362 41.3412 33.9051 41.2816 33.6445L42.683 34.4561ZM38.634 3.66792C38.9183 3.20392 39.3975 2.96709 40.0909 2.94556C40.8944 2.92095 41.4949 3.2606 41.8369 3.9298C42.1412 4.52343 42.1532 5.10387 41.8751 5.65839L38.634 3.66792ZM50.624 35.8914C50.2922 35.5043 49.8836 35.1971 49.4874 34.9001C49.363 34.8065 49.2391 34.7138 49.1205 34.6198C53.3139 24.5062 51.5465 15.2925 43.8664 7.22956C45.055 4.44555 44.5681 2.31184 42.4534 1.05341C41.5238 0.500211 40.5622 0.299847 39.5956 0.459348C38.2316 0.683 37.122 1.43569 36.2941 2.69631L35.8322 2.53725C31.9505 1.18787 28.0521 0.834152 24.2477 1.48402C17.3155 2.66863 11.8598 6.29321 8.031 12.2576C7.6579 12.8385 7.53619 13.2392 7.62369 13.5977C7.71253 13.9629 8.00124 14.2581 8.61908 14.6176C13.0182 17.1766 17.4155 19.7374 21.8128 22.2986C21.8296 22.3083 21.8461 22.3184 21.8634 22.3285L21.8296 22.3382C15.7343 24.1015 11.786 28.0486 10.0942 34.0696C10.0178 34.3434 9.95871 34.3653 9.71175 34.3645C8.69548 34.3552 7.67877 34.3526 6.66206 34.3504C5.66179 34.3482 4.66151 34.346 3.66124 34.3368C2.54326 34.3315 1.61271 34.7753 0.916253 35.6703C0.677288 35.9775 0.514277 36.3338 0.356596 36.6788C0.28775 36.8286 0.218903 36.9784 0.144282 37.1234L0.120297 37.17L0.117188 38.276L0.161605 38.3344C0.174042 38.3502 0.187367 38.366 0.212684 38.3867C0.814538 40.1548 2.06844 41.0538 3.93884 41.0591L40.0047 41.1689C42.0679 41.1764 44.1297 41.1843 46.1929 41.1843C46.7401 41.1843 47.2874 41.1839 47.8341 41.1826C49.2431 41.1791 50.3171 40.4949 51.0264 39.1477C51.6114 38.0361 51.4688 36.8796 50.624 35.8914Z" fill="#1D242D"/>
</g>
</g>
<path id="Fill 4" fill-rule="evenodd" clip-rule="evenodd" d="M45.373 25.6199C45.3286 26.3587 45.8537 26.9256 46.6216 26.9685C46.6528 26.9698 46.6841 26.9706 46.7153 26.9706C47.0593 26.9706 47.3767 26.8645 47.6185 26.6675C47.8901 26.4445 48.0523 26.1162 48.0732 25.7438C48.0916 25.4285 48.0883 25.1111 48.085 24.8036C48.0836 24.6624 48.0826 24.5217 48.0831 24.3809V24.3792C48.0637 20.1499 46.6315 16.3748 43.7043 12.8389C38.903 7.04097 30.2079 4.33821 22.5565 6.26795C22.1662 6.36626 21.8128 6.69322 21.6122 6.96605C21.3326 7.34629 21.3903 7.81486 21.7702 8.25183C22.135 8.66973 22.6497 8.80485 23.2993 8.65371C25.8982 8.04785 28.2426 7.94608 30.4677 8.34277C37.3545 9.57008 42.0626 13.2031 44.4604 19.14C45.2245 21.0316 45.5225 23.1514 45.373 25.6199Z" fill="#1D242D"/>
<path id="Fill 6" fill-rule="evenodd" clip-rule="evenodd" d="M45.8054 27.4976C45.4671 27.1556 44.9811 26.9757 44.5137 26.9707C43.5237 26.9763 42.7689 27.7266 42.7577 28.7164C42.7521 29.2103 42.9365 29.6702 43.2772 30.0109C43.6081 30.3423 44.0506 30.5241 44.5249 30.5241H44.5441C45.5031 30.5141 46.2958 29.7266 46.3107 28.7685C46.3188 28.2863 46.1394 27.8345 45.8054 27.4976Z" fill="#1D242D"/>
</g>
</svg>
