<svg width="51" height="50" viewBox="0 0 51 50" fill="none" xmlns="http://www.w3.org/2000/svg">
<g id="Pinwheel">
<path id="Vector" d="M47.3572 24.3143L36.9103 13.3699C36.7113 13.1709 36.4128 13.0715 36.1641 13.0715H26.2146V3.61947C26.2146 3.22149 25.9659 2.87326 25.6176 2.72402C25.2197 2.52503 24.8217 2.62453 24.5232 2.87326L13.5788 13.3202C13.3798 13.5192 13.2803 13.8177 13.2803 14.0664V24.0159H3.82834C3.43036 24.0159 3.08213 24.2646 2.93289 24.6128C2.7339 25.0108 2.8334 25.4088 3.08213 25.7073L13.5291 36.6517C13.728 36.8506 13.9768 36.9501 14.2753 36.9501H24.2247V46.4021C24.2247 46.8001 24.4735 47.1483 24.8217 47.2976C24.9709 47.3971 25.0704 47.3971 25.2197 47.3971C25.4684 47.3971 25.7171 47.2976 25.9161 47.1483L36.8605 36.7014C37.0595 36.5024 37.159 36.2537 37.159 35.9552V26.0057H46.611C47.009 26.0057 47.3572 25.757 47.5064 25.4088C47.7054 25.0108 47.6059 24.6128 47.3572 24.3143ZM26.2146 15.0613H29.5974L26.7121 20.7823C26.5628 20.7325 26.3639 20.6828 26.2146 20.633V15.0613ZM15.2702 14.5141L24.2247 5.95759V20.6828C23.379 20.8818 22.6328 21.2798 22.0856 21.8767L15.2702 18.4442V14.5141ZM15.2702 20.633L20.9911 23.5184C20.9414 23.6676 20.8917 23.8666 20.8419 24.0159H15.2702V20.633ZM14.723 34.9602L6.16646 26.0057H20.8917C21.0906 26.8514 21.4886 27.5479 22.0856 28.1449L18.653 34.9602H14.723ZM24.2247 34.9602H20.8419L23.7272 29.2393C23.8765 29.2891 24.0755 29.3388 24.2247 29.3886V34.9602ZM25.2197 27.4982C23.8267 27.4982 22.7323 26.4037 22.7323 25.0108C22.7323 23.6179 23.8267 22.5234 25.2197 22.5234C26.6126 22.5234 27.707 23.6179 27.707 25.0108C27.707 26.4037 26.6126 27.4982 25.2197 27.4982ZM35.1691 35.5075L26.2146 44.064V29.3886C27.0603 29.1896 27.8065 28.7916 28.3537 28.1946L35.1691 31.5774V35.5075ZM35.1691 29.3886L29.4482 26.5032C29.4979 26.354 29.5477 26.155 29.5974 26.0057H35.1691V29.3886ZM29.5974 24.0159C29.3984 23.1701 29.0005 22.4239 28.4035 21.8767L31.7863 15.0613H35.7163L44.2729 24.0159H29.5974Z" fill="black"/>
</g>
</svg>
