<svg width="51" height="40" viewBox="0 0 51 40" fill="none" xmlns="http://www.w3.org/2000/svg">
<g id="Group 3 Copy 5">
<mask id="mask0_1_4470" style="mask-type:luminance" maskUnits="userSpaceOnUse" x="0" y="0" width="51" height="40">
<path id="Clip 2" fill-rule="evenodd" clip-rule="evenodd" d="M0.424591 0.467285H50.1719V39.5544H0.424591V0.467285Z" fill="white"/>
</mask>
<g mask="url(#mask0_1_4470)">
<path id="Fill 1" fill-rule="evenodd" clip-rule="evenodd" d="M25.266 9.65843C26.5568 9.66039 27.6123 8.60135 27.6091 7.3073C27.6062 6.05836 26.532 4.96304 25.3008 4.95291C24.0505 4.94277 22.9481 6.05966 22.9584 7.32626C22.969 8.60037 24.0139 9.65646 25.266 9.65843ZM47.3106 34.9915H3.25932C3.5743 35.6387 3.87738 36.1885 4.11136 36.767C4.29456 37.2204 4.56293 37.3449 5.03828 37.3443C17.6301 37.3296 30.222 37.3328 42.8138 37.3328C43.7877 37.3328 44.7619 37.3446 45.7354 37.3227C45.9157 37.3184 46.1809 37.2299 46.257 37.0939C46.6212 36.4395 46.9345 35.7557 47.3106 34.9915ZM41.2708 17.5251C41.0394 16.4484 40.8064 15.2319 40.5123 14.0306C40.1989 12.75 39.0911 11.8756 37.7904 11.8743C29.4493 11.8671 21.108 11.8678 12.767 11.8753C11.4663 11.8766 10.3703 12.7467 10.0518 14.0362C9.78956 15.0975 9.61953 16.1827 9.34634 17.2408C9.19432 17.8285 9.42348 18.1655 9.85962 18.4498C10.3655 18.7793 10.8495 18.6204 11.3085 18.3485C11.8742 18.0135 12.4164 17.6376 12.984 17.3068C14.9474 16.1631 16.5139 16.3945 18.091 18.0442C19.143 19.1444 19.8684 19.1938 21.0338 18.2432C21.1582 18.1419 21.2787 18.036 21.4024 17.934C23.6079 16.1144 26.99 16.0801 29.1575 17.9494C30.6649 19.249 31.4729 19.1856 32.7476 17.7771C33.7757 16.6416 35.6006 16.1206 37.2163 17.1009C37.8238 17.4692 38.4235 17.851 39.0364 18.2109C39.2945 18.3629 39.5651 18.5159 39.8499 18.594C40.4631 18.7623 41.2882 18.203 41.2708 17.5251ZM8.72057 20.3357C7.85664 24.5169 7.01393 28.5929 6.16575 32.696H44.4041C43.5473 28.5586 42.7052 24.4918 41.8554 20.3883C41.4813 20.5161 41.1731 20.6449 40.8533 20.7263C39.7589 21.0041 38.8015 20.5979 37.8762 20.0706C37.2144 19.6934 36.5709 19.2813 35.8983 18.9256C35.4084 18.6667 34.9324 18.7968 34.5169 19.1446C34.3256 19.3045 34.1408 19.4738 33.9679 19.6535C32.1864 21.5085 29.9915 21.5696 28.058 19.8948C27.5508 19.4558 26.9074 19.0881 26.2675 18.9184C24.8247 18.5353 23.5291 18.9103 22.3972 19.9539C20.659 21.5569 18.3131 21.4686 16.7347 19.7983C15.5539 18.5491 15.0435 18.4968 13.6206 19.4761C13.4448 19.5973 13.2661 19.7137 13.0862 19.8287C11.7469 20.6864 10.3658 21.2447 8.72057 20.3357ZM21.2437 9.65943C21.0945 8.78147 20.8561 7.98066 20.8422 7.17625C20.8101 5.2641 22.1057 3.57814 23.919 2.95743C24.1543 2.87702 24.4056 2.67469 24.5297 2.45798C25.1982 1.29108 26.2954 0.850142 27.4968 0.582768C27.8568 0.502687 28.2325 0.474903 28.6018 0.468039C29.2758 0.455945 29.7145 0.85766 29.745 1.47216C29.7781 2.14746 29.3578 2.59167 28.6561 2.676C28.1278 2.73974 27.6052 2.85152 27.0726 3.02541C28.2435 3.71412 29.108 4.59828 29.5265 5.87762C29.944 7.15467 29.7746 8.38727 29.1357 9.65877H29.799L37.397 9.65943C40.3034 9.65975 42.1984 11.2467 42.7875 14.128C44.0239 20.1746 45.2797 26.2173 46.5196 32.2633C46.5942 32.6278 46.7542 32.7745 47.1283 32.7598C47.765 32.7346 48.4037 32.7415 49.041 32.7601C49.9435 32.7866 50.4259 33.5394 50.0351 34.3673C49.3155 35.8908 48.5557 37.3951 47.8116 38.9068C47.5674 39.4036 47.1566 39.5497 46.6305 39.5491C40.5914 39.5406 34.5522 39.5442 28.5128 39.5442C20.3659 39.5442 12.219 39.5376 4.07248 39.5546C3.35865 39.5563 2.92154 39.3056 2.61589 38.6479C1.99687 37.315 1.36146 35.9866 0.661767 34.6958C0.158774 33.7679 0.408503 32.6189 1.86959 32.7464C2.39701 32.7925 2.93215 32.736 3.46246 32.7585C3.81054 32.7732 3.97059 32.634 4.04098 32.2921C5.24495 26.4399 6.45535 20.5891 7.66703 14.7389C7.77984 14.195 7.87337 13.6416 8.04532 13.1163C8.72797 11.0309 10.6159 9.6689 12.8184 9.66106C15.4395 9.65191 18.0608 9.6591 20.6819 9.65943C20.892 9.65943 21.1022 9.65943 21.2437 9.65943Z" fill="#1D242D"/>
</g>
</g>
</svg>
