<svg width="51" height="51" viewBox="0 0 51 51" fill="none" xmlns="http://www.w3.org/2000/svg">
<g id="T Shirt">
<path id="Vector" d="M48.549 10.9728L47.7717 10.5375C41.0241 6.68495 33.3885 4.65869 25.6186 4.65869C17.8487 4.65869 10.2131 6.68495 3.46554 10.5375L2.68824 10.9728C2.5191 11.0695 2.39248 11.2263 2.33345 11.412C2.27443 11.5977 2.28731 11.7988 2.36954 11.9755L7.81065 23.635C7.8955 23.8184 8.04846 23.9616 8.23711 24.0342C8.42575 24.1067 8.63524 24.1029 8.82114 24.0236C9.48185 23.7438 10.1659 23.4795 10.8499 23.2463V43.5183C10.8504 43.6351 10.8773 43.7502 10.9284 43.8552C10.9795 43.9602 11.0537 44.0522 11.1453 44.1246C11.3085 44.2956 15.3582 47.4049 25.6186 47.4049C35.879 47.4049 39.9287 44.2956 40.092 44.1246C40.1836 44.0522 40.2577 43.9602 40.3088 43.8552C40.36 43.7502 40.3868 43.6351 40.3873 43.5183V23.2308C41.0714 23.4795 41.7476 23.7438 42.4161 24.0081C42.602 24.0874 42.8115 24.0912 43.0001 24.0186C43.1888 23.9461 43.3417 23.8029 43.4266 23.6194L48.8677 11.9599C48.9454 11.785 48.9559 11.5876 48.8971 11.4054C48.8383 11.2232 48.7143 11.0692 48.549 10.9728ZM25.6186 6.2079C27.4379 6.20932 29.2552 6.32615 31.0597 6.55769C31.0597 8.00076 30.4865 9.38473 29.4661 10.4051C28.4457 11.4255 27.0617 11.9988 25.6186 11.9988C24.1755 11.9988 22.7916 11.4255 21.7712 10.4051C20.7508 9.38473 20.1775 8.00076 20.1775 6.55769C21.982 6.32615 23.7993 6.20932 25.6186 6.2079ZM42.3306 22.3058C41.6932 22.0493 41.0403 21.8161 40.3873 21.5907V17.0901H38.8327V43.1064C37.7678 43.7671 33.7725 45.8502 25.6186 45.8502C17.4647 45.8502 13.4616 43.7671 12.4045 43.1064V17.0901H10.8499V21.5907C10.197 21.8161 9.54403 22.0493 8.90665 22.3058L4.08738 11.9677L4.22729 11.89C8.68383 9.34331 13.5586 7.61135 18.6229 6.77533C18.6229 8.63071 19.36 10.4101 20.6719 11.722C21.9839 13.034 23.7632 13.771 25.6186 13.771C27.474 13.771 29.2534 13.034 30.5653 11.722C31.8773 10.4101 32.6143 8.63071 32.6143 6.77533C37.6894 7.60778 42.575 9.33985 47.041 11.89L47.1809 11.9677L42.3306 22.3058Z" fill="black"/>
<path id="Vector_2" d="M35.7235 17.0903H29.5051C29.299 17.0903 29.1013 17.1722 28.9555 17.318C28.8097 17.4638 28.7278 17.6615 28.7278 17.8676V23.3087C28.7272 23.3932 28.7403 23.4772 28.7667 23.5575C28.8056 23.6741 29.7539 26.4179 32.6143 26.4179C35.4748 26.4179 36.4231 23.6741 36.462 23.5575C36.4884 23.4772 36.5015 23.3932 36.5008 23.3087V17.8676C36.5008 17.6615 36.4189 17.4638 36.2732 17.318C36.1274 17.1722 35.9297 17.0903 35.7235 17.0903ZM34.9462 23.1611C34.788 23.6552 34.4769 24.0864 34.0578 24.3922C33.6387 24.6981 33.1332 24.863 32.6143 24.863C32.0954 24.863 31.59 24.6981 31.1709 24.3922C30.7517 24.0864 30.4406 23.6552 30.2824 23.1611V18.6449H34.9462V23.1611Z" fill="black"/>
</g>
</svg>
