<svg width="46" height="46" viewBox="0 0 46 46" fill="none" xmlns="http://www.w3.org/2000/svg">
<g id="Group 10 Copy">
<g id="Group 3">
<mask id="mask0_1_4500" style="mask-type:luminance" maskUnits="userSpaceOnUse" x="0" y="0" width="46" height="46">
<path id="Clip 2" fill-rule="evenodd" clip-rule="evenodd" d="M0.832642 0.703613H45.1361V45.3188H0.832642V0.703613Z" fill="white"/>
</mask>
<g mask="url(#mask0_1_4500)">
<path id="Fill 1" fill-rule="evenodd" clip-rule="evenodd" d="M40.6149 22.2867C40.6149 27.2995 38.7401 31.8625 35.6726 35.2829C34.8546 34.4402 34.0388 33.5959 33.22 32.7539L31.8442 31.3382L32.3993 31.9092C34.6251 29.3537 35.9801 25.9828 35.9801 22.2867C35.9801 21.4503 35.9071 20.6317 35.7738 19.8342C37.0407 18.5277 38.3056 17.2307 39.5639 15.9429C40.2422 17.9297 40.6149 20.0627 40.6149 22.2867ZM37.5131 41.2888C37.5073 42.061 37.0079 42.7204 36.2404 42.9691C35.4463 43.2261 34.6275 42.9295 34.1521 42.2139C33.2425 40.8456 32.3356 39.4754 31.4291 38.1052C30.5438 36.767 29.6582 35.4297 28.7702 34.0931L28.6173 33.8626C27.7135 32.5027 26.7788 31.0964 25.8329 29.7301C25.3733 29.0672 24.7955 28.5262 24.2362 28.0035C24.0574 27.836 23.8782 27.6684 23.7036 27.497C23.8098 27.39 23.9064 27.2712 24.0002 27.156C24.1064 27.0253 24.2791 26.813 24.3726 26.7715C24.4544 26.8221 24.6035 27.017 24.6947 27.137C24.7878 27.259 24.8843 27.3849 24.9894 27.493C28.9889 31.6029 32.9845 35.7168 36.9789 39.8322C37.3698 40.2346 37.5343 40.6805 37.5131 41.2888ZM29.8126 39.6882C27.4041 40.8441 24.7178 41.4936 21.8824 41.4936C18.8311 41.4936 15.9529 40.7408 13.4076 39.4141C14.457 38.1658 15.508 36.9188 16.5585 35.6713C18.2016 36.3592 19.998 36.7414 21.8824 36.7414C23.7514 36.7414 25.5339 36.3651 27.1661 35.6879C28.3461 37.4712 29.5237 39.2565 30.7064 41.0386C30.4078 40.5887 30.1112 40.138 29.8126 39.6882ZM24.5765 31.7741C25.3872 33.0069 26.2049 34.235 27.0191 35.4654C26.7043 34.9902 26.3895 34.515 26.0751 34.0394C24.7681 34.53 23.3556 34.7978 21.8825 34.7978C20.4789 34.7978 19.1325 34.5518 17.8776 34.1047C18.0526 33.8968 18.2272 33.6889 18.4021 33.4818C18.6907 33.1392 18.9776 32.7951 19.2646 32.4513C20.1951 31.3346 21.1576 30.1798 22.1699 29.1125C22.3008 29.2424 22.4329 29.3719 22.5646 29.5006C23.3112 30.232 24.0169 30.9235 24.5765 31.7741ZM11.1652 38.6152C10.2769 39.671 9.38855 40.7272 8.49905 41.7822C8.43146 41.8622 8.36541 41.9441 8.29975 42.0265C8.09234 42.2847 7.89613 42.5287 7.65242 42.7005C7.32296 42.933 6.96453 43.0581 6.64279 43.0439C5.78535 43.0379 5.07313 42.5746 4.78384 41.8348C4.47253 41.0376 4.63977 40.2369 5.23226 39.6928C6.19437 38.8092 7.19279 37.9305 8.158 37.0802L9.19582 36.1646C10.1664 35.306 11.1382 34.4483 12.1096 33.5909C14.079 31.8527 16.048 30.115 18.0082 28.3666C19.9193 26.6613 21.7219 24.7893 23.4653 22.9795C24.1409 22.2781 24.816 21.5768 25.4989 20.883C25.5128 20.8687 25.5259 20.8564 25.5367 20.8457C25.5371 20.8461 25.5375 20.8465 25.5379 20.8469C25.7542 21.1182 26.011 21.3831 26.3015 21.6354C26.3011 21.6354 26.3007 21.6358 26.3007 21.6362C25.5545 22.3942 24.8137 23.1577 24.0729 23.9212C23.283 24.7362 22.4928 25.5505 21.696 26.3576C20.0406 28.0339 18.513 29.8683 17.0356 31.6417C16.5648 32.2072 16.094 32.7727 15.6185 33.3339C14.1304 35.0906 12.6476 36.8529 11.1652 38.6152ZM9.68436 22.4397C9.57969 22.3292 9.47696 22.2176 9.37228 22.1071C9.74539 22.5007 10.1181 22.8944 10.485 23.2939C10.8045 23.6412 11.2 23.9367 11.7283 24.2234C13.0771 24.9545 14.5513 25.0721 16.1079 24.5719C16.939 24.3058 17.5412 24.4887 18.0603 25.1651C18.0788 25.1893 18.0935 25.2091 18.1051 25.2257C18.0954 25.2348 18.0846 25.2459 18.0715 25.2582C16.2461 26.9627 14.3513 28.6386 12.4911 30.273C10.7662 28.1428 9.71951 25.4162 9.68436 22.4397ZM7.45071 16.3623C5.62806 13.5989 4.47823 10.5693 4.03367 7.35837C3.96878 6.89106 3.92398 6.42732 3.8869 5.96992L11.0323 13.2242C10.4332 13.2238 9.8419 13.2238 9.24941 13.225C8.51208 13.227 8.03238 13.667 8.02658 14.3462C8.02311 14.758 8.17992 15.0079 8.31201 15.1453C8.52406 15.3647 8.8342 15.4768 9.23396 15.478L9.58852 15.4788C10.7662 15.4819 11.943 15.4851 13.1203 15.4736H13.1292C13.2732 15.4736 13.352 15.5093 13.4609 15.6217C15.6648 17.8965 18.0413 20.3447 20.4835 22.8309C20.485 22.8325 20.4866 22.8345 20.4881 22.836C20.4846 22.8392 20.4808 22.8428 20.4769 22.8463C20.2116 23.1034 19.9636 23.3794 19.7241 23.6463C19.7153 23.6562 19.7064 23.6657 19.6975 23.676C19.6566 23.6297 19.6168 23.5829 19.577 23.5374C19.3873 23.318 19.1911 23.0911 18.9409 22.9061C18.2893 22.425 17.5832 22.1838 16.8308 22.1838C16.4577 22.1838 16.0738 22.2432 15.6795 22.3616C14.5018 22.7157 13.617 22.6848 12.8113 22.2598C12.5842 22.1398 12.3698 22.0266 12.2211 21.8678C11.8967 21.5209 11.568 21.1775 11.2393 20.8338C9.90833 19.4414 8.53217 18.0018 7.45071 16.3623ZM27.8622 23.2155C29.2763 24.4796 31.4562 24.3204 32.8887 22.8243C33.2788 22.4175 33.6728 22.0096 34.0656 21.6021C34.0776 21.8287 34.0845 22.0568 34.0845 22.2865C34.0845 25.4447 32.9409 28.327 31.058 30.5288L25.9021 25.2226C26.5672 24.5628 27.2246 23.8793 27.8622 23.2155ZM27.9787 23.0959C27.9644 23.107 27.9455 23.1161 27.9254 23.122L27.6834 22.8379L27.9787 23.0959ZM44.8153 8.99351C44.4476 8.60423 43.8246 8.54839 43.3959 8.8652C43.2735 8.95629 43.1727 9.06242 43.0838 9.15667L31.2318 21.3006C30.5365 22.0131 29.8004 22.0143 29.1036 21.3054C28.0279 20.2112 26.9569 19.1114 25.8882 18.0093C25.1424 17.2402 25.1493 16.5183 25.9098 15.7381L37.656 3.68604L37.7229 3.61912C37.8055 3.53674 37.899 3.44368 37.9797 3.33042C38.2551 2.94588 38.2779 2.49402 38.0423 2.09048C37.8291 1.72535 37.4676 1.53248 37.0238 1.55149C36.6151 1.56773 36.3641 1.82514 36.1713 2.02276L31.7733 6.53224C30.759 7.5722 29.7451 8.61294 28.7313 9.65289C26.7031 8.49413 24.3687 7.83198 21.8825 7.83198C18.2952 7.83198 15.0226 9.20816 12.5344 11.4706C12.9813 11.9308 13.4278 12.3914 13.8751 12.8511C16.0179 10.9376 18.817 9.77565 21.8825 9.77565C23.8404 9.77565 25.6889 10.2513 27.3288 11.0912C27.4204 10.9974 27.5115 10.9035 27.6035 10.8101C26.4842 11.9577 25.3645 13.105 24.2455 14.2539C22.8504 15.6863 22.7527 17.6881 23.9987 19.2425L23.9655 19.2766C23.3278 19.9154 22.6685 20.5763 22.044 21.2539C22.0424 21.2555 22.0409 21.2571 22.039 21.2587C22.0324 21.2523 22.0251 21.2448 22.0169 21.2365C18.5397 17.6481 15.057 14.0653 11.5747 10.4822L8.46931 7.28666L9.25762 8.09811C12.5881 4.98143 17.0183 3.07974 21.8825 3.07974C25.6549 3.07974 29.1639 4.22701 32.1035 6.19404L33.7751 4.47967C30.3913 2.09919 26.2964 0.703613 21.8825 0.703613C16.3802 0.703613 11.3726 2.87064 7.62229 6.41502L7.32489 6.1085C6.08507 4.83134 4.84487 3.55377 3.60157 2.27978C3.26864 1.93841 2.88472 1.79307 2.52667 1.86831C2.22387 1.93247 1.97243 2.15344 1.79669 2.48571L1.60511 2.56729V3.58308V5.78931V6.26335L1.69279 6.30097C1.7403 7.05341 1.85269 7.77377 1.94616 8.32345C2.19722 9.79506 2.5792 11.2164 3.07938 12.587C1.64528 15.5041 0.832642 18.797 0.832642 22.2867C0.832642 27.5863 2.69855 32.4367 5.7896 36.1934C5.82784 36.1597 5.8653 36.1257 5.90354 36.0924C6.45122 35.6101 6.99813 35.1265 7.54311 34.6406C4.80315 31.301 3.15006 26.9927 3.15006 22.2867C3.15006 19.8896 3.58187 17.5971 4.36439 15.4811C4.364 15.4807 4.364 15.4803 4.36362 15.4799C4.90126 16.5044 5.50649 17.4969 6.19592 18.4457C6.72391 19.172 7.30288 19.856 7.89691 20.5177C7.89613 20.5165 7.89498 20.5153 7.8942 20.5145C7.82507 21.0955 7.7849 21.6864 7.7849 22.2867C7.7849 25.807 9.01352 29.0322 11.0528 31.539C11.2344 31.3802 11.414 31.2194 11.5947 31.0606C10.3395 32.1623 9.08381 33.2636 7.83974 34.378C7.19743 34.9535 6.55049 35.5229 5.90354 36.0924C5.23072 36.6845 4.55789 37.2769 3.89048 37.8753C2.75571 38.8939 2.2706 40.2079 2.48844 41.6755C2.75571 43.477 3.78426 44.6773 5.46207 45.147C7.11555 45.6092 8.60024 45.1272 9.75702 43.753L11.8497 41.2652C14.8322 42.9265 18.25 43.8699 21.8825 43.8699C25.2011 43.8699 28.3385 43.0798 31.1302 41.6775L32.3078 43.4533C33.1201 44.6777 34.2637 45.3193 35.6275 45.3189C35.7094 45.3189 35.7924 45.3165 35.8755 45.3122C37.5927 45.2167 38.8642 44.2679 39.4567 42.6406C40.0538 41.0019 39.7263 39.4693 38.5104 38.2087C38.1103 37.7941 37.7078 37.3819 37.3069 36.968C40.7961 33.1159 42.9324 27.9582 42.9324 22.2867C42.9324 19.3895 42.372 16.6276 41.362 14.1034C41.3264 14.1398 41.2905 14.1762 41.255 14.2127C42.3685 13.0741 43.4816 11.9359 44.5936 10.7958L44.6593 10.7297C44.7419 10.6473 44.8362 10.5534 44.9177 10.4394C45.2429 9.98356 45.2019 9.4026 44.8153 8.99351Z" fill="#1D242D"/>
</g>
</g>
<path id="Fill 4" fill-rule="evenodd" clip-rule="evenodd" d="M28.1728 14.451C28.0259 14.5925 27.8739 14.7386 27.7333 14.9007C27.4582 15.217 27.4072 15.612 27.5931 15.9843C27.7469 16.2922 28.0151 16.4836 28.39 16.5523L28.4263 16.5589L28.4626 16.5578C28.8985 16.546 29.1604 16.2842 29.3512 16.0927C31.797 13.6453 34.2436 11.1985 36.6904 8.75202L39.4425 5.99912L39.5004 5.94264C39.5733 5.87222 39.6454 5.80074 39.7065 5.7216C40.0078 5.33112 39.9879 4.8071 39.6587 4.448C39.3134 4.07111 38.7617 4.01429 38.347 4.31307C38.2333 4.39501 38.1388 4.49123 38.0558 4.57595L28.36 14.2686C28.2983 14.33 28.2355 14.3903 28.1728 14.451Z" fill="#1D242D"/>
<path id="Fill 6" fill-rule="evenodd" clip-rule="evenodd" d="M29.6631 18.3139C29.6027 18.3737 29.5423 18.4345 29.4892 18.5001C29.2287 18.8208 29.1885 19.2039 29.3761 19.5794C29.4958 19.818 29.7473 20.1041 30.2669 20.1121H30.2826C30.6978 20.1121 30.9563 19.8515 31.1277 19.6786C31.8621 18.9374 32.5979 18.1976 33.3354 17.4592C35.9758 14.8165 38.6176 12.1748 41.2591 9.53305L41.2891 9.50301C41.4714 9.32207 41.7211 9.07372 41.6946 8.70801C41.6991 8.17464 41.3359 7.74326 40.8306 7.68249C40.3536 7.62555 40.0554 7.91931 39.8601 8.11421C37.504 10.4726 35.1465 12.83 32.7893 15.1874L29.6631 18.3139Z" fill="#1D242D"/>
<path id="Fill 8" fill-rule="evenodd" clip-rule="evenodd" d="M13.5119 18.3269C14.3983 18.2886 15.0144 17.6209 15.0448 16.6658C15.078 15.6704 14.4691 14.8785 13.6302 14.824C12.7487 14.7672 11.9032 14.7684 11.1157 14.8271C10.7158 14.8574 10.3547 15.0571 10.0992 15.3897C9.82052 15.7526 9.68337 16.2583 9.72264 16.777C9.79176 17.6821 10.3956 18.2905 11.2617 18.3276C11.5166 18.3381 11.7732 18.3356 12.0281 18.3331L12.3566 18.3307L12.7056 18.3331C12.8228 18.3344 12.94 18.3356 13.0573 18.3356C13.2088 18.3356 13.3609 18.3337 13.5119 18.3269Z" fill="#1D242D"/>
</g>
</svg>
